<?xml version="1.0" encoding="UTF-8"?>
<svg width="193px" height="40px" viewBox="0 0 193 40" version="1.1" xmlns="http://www.w3.org/2000/svg" xmlns:xlink="http://www.w3.org/1999/xlink">
    <!-- Generator: Sketch 52.5 (67469) - http://www.bohemiancoding.com/sketch -->
    <title>Logo</title>
    <desc>Created with Sketch.</desc>
    <defs>
        <path d="M9.68314908,23.7985227 C10.7559694,21.7017732 13.4761605,21.7017732 13.9817775,23.8056855 C14.8910533,22.3308038 15.9355013,21.7017732 17.3537903,21.7017732 C16.7502268,20.6681138 16.1129883,19.9462853 13.4761605,19.629005 C15.2108642,16.9827145 19.1799696,18.9041059 19.1799696,21.1855972 C19.1799696,19.0704331 19.927899,18.267049 21.418894,18.267049 C19.5765366,15.4051513 15.7949829,14.0463023 13.4761605,14.0463023 C21.418894,5.27302428 26.6046167,12.1043273 28.4191666,16.8131491 C29.2586684,12.9982567 31.9873686,16.4965648 32.2904159,18.9041059 C34.4458881,15.1704531 33.9272082,12.1660817 30.2878863,9.17264521 C29.5792288,8.56430486 29.5792288,7.86410694 30.8114598,7.86410694 C25.5329064,2.41000623 15.5334905,2.69667136 8.39168987,11.3173873 C6.95486606,13.0517468 3.31401413,16.8056362 0,16.8131491 L0,40 L1.98856646,40 C-0.252571941,38.184512 0.992385528,32.4475627 4.19652428,35.3541133 C4.21480207,35.2104919 10.7569359,30.4591822 14.750524,40 C15.7897525,36.9920461 17.5837175,36.6713909 20.9710763,38.8933238 C20.5004276,37.7873411 20.6434267,34.4584134 27.3429088,40 L59,40 L59,37.1821514 C56.7861015,35.7893139 54.4980941,35.7893139 46.7828771,37.617352 C48.3329575,34.8172475 56.3959547,33.7928536 59,34.8172475 C55.6599158,33.278989 55.6599158,32.0570532 59,31.1514401 L59,26.6741814 C36.8395147,47.294137 22.9007633,36.7889389 24.2483039,33.0594186 C25.1715543,31.3885554 26.5963907,30.7928251 35.5515226,37.1821514 C30.8114598,30.7282428 41.7224621,37.1821514 59,26.6741814 C56.6641424,27.9476196 43.8999139,32.7130597 39.3862556,30.4934868 C45.2255668,30.4934868 56.3648235,23.7746602 59,21.1855972 L59,16.8131491 C42.8832144,35.6283209 28.9694083,31.3671392 20.4122094,22.5677712 C5.57270763,35.6283209 -4.14178624,27.4103321 6.07105517,25.1568342 C6.07105517,23.8056855 3.61682021,21.9876353 1.43946306,22.5677712 C2.1254216,19.9345251 5.58190437,21.158249 6.07105517,22.5677712 C6.75327213,21.1147252 6.07105517,19.4739592 6.07105517,18.9041059 C10.3207563,18.9041059 9.62508938,23.9119961 9.68314908,23.7985227 Z" id="path-1"></path>
    </defs>
    <g id="Logo" stroke="none" stroke-width="1" fill="none" fill-rule="evenodd">
        <g id="Vector-Image" transform="translate(72.000000, 0.000000)">
            <rect id="Rectangle" fill="#F5A623" fill-rule="evenodd" x="0" y="0" width="59" height="39.6875"></rect>
            <path d="M37.9361527,25.625 C42.6697549,28.984375 45.3863311,29.7994608 52.8310992,32.34375 L13.7613941,31.8165 C19.3567879,31.168216 30.8538142,32.7540831 37.9361527,25.625 Z" id="Path-3" fill="#F9F9F9" fill-rule="evenodd"></path>
            <path d="M-2.27168978e-13,14.2171605 L-2.27373675e-13,40 L58.9821863,39.999706 C59.0059379,28.8110222 59.0059379,21.0840856 58.9821863,16.818896 C36.0756552,45.9948501 14.3680712,19.9206331 27.0797205,14.2171605 C21.6170374,-0.943343061 5.31938699,19.0896639 -2.27168978e-13,14.2171605 Z" id="Path-2" fill="#011E6C" fill-rule="evenodd"></path>
            <mask id="mask-2" fill="white">
                <use xlink:href="#path-1"></use>
            </mask>
            <use id="Path" fill="#FAFAFA" fill-rule="evenodd" xlink:href="#path-1"></use>
        </g>
        <path d="M138,38.6740947 L138,0 L146.227912,0 C148.031803,0 149.568769,0.271585028 150.838855,0.814763231 C152.108942,1.35794143 153.148925,2.08216818 153.958835,2.98746518 C154.768746,3.89276219 155.348559,4.93383813 155.698293,6.11072423 C156.048027,7.28761034 156.222892,8.50974297 156.222892,9.77715877 L156.222892,11.189415 C156.222892,12.2395596 156.140061,13.1267373 155.974398,13.8509749 C155.808734,14.5752125 155.560243,15.2089109 155.228916,15.7520891 C154.603076,16.7660218 153.645923,17.6350939 152.35743,18.3593315 C153.682738,18.9749334 154.658297,19.8802169 155.284137,21.0752089 C155.909976,22.270201 156.222892,23.8997111 156.222892,25.9637883 L156.222892,28.1364903 C156.222892,31.540407 155.385383,34.1476233 153.710341,35.9582173 C152.0353,37.7688113 149.357113,38.6740947 145.675703,38.6740947 L138,38.6740947 Z M143.63253,20.7493036 L143.63253,33.1337047 L146.062249,33.1337047 C147.203486,33.1337047 148.096215,32.9707537 148.740462,32.6448468 C149.384709,32.3189399 149.872488,31.8662982 150.203815,31.2869081 C150.535142,30.707518 150.737617,30.0195026 150.811245,29.2228412 C150.884873,28.4261799 150.921687,27.5571078 150.921687,26.6155989 C150.921687,25.6378781 150.866466,24.7869117 150.756024,24.0626741 C150.645582,23.3384365 150.4247,22.7228438 150.093373,22.2158774 C149.725232,21.7089111 149.228249,21.3377449 148.60241,21.1023677 C147.97657,20.8669905 147.148265,20.7493036 146.11747,20.7493036 L143.63253,20.7493036 Z M143.63253,5.21448468 L143.63253,15.8607242 L146.172691,15.8607242 C148.05021,15.8607242 149.311074,15.3990297 149.955321,14.4756267 C150.599568,13.5522238 150.921687,12.2033515 150.921687,10.4289694 C150.921687,8.69079911 150.562755,7.38719097 149.84488,6.51810585 C149.127004,5.64902072 147.829327,5.21448468 145.951807,5.21448468 L143.63253,5.21448468 Z M174.611446,0 L174.611446,29.5487465 C174.611446,32.1922138 173.764734,34.4011053 172.071285,36.1754875 C171.224561,37.0445726 170.221391,37.732588 169.061747,38.2395543 C167.902103,38.7465206 166.549205,39 165.003012,39 C163.199121,39 161.698968,38.6107281 160.50251,37.8321727 C159.306052,37.0536173 158.358103,36.2841264 157.658635,35.5236769 L162.076305,32.0473538 C162.48126,32.4456844 162.950633,32.7806393 163.484438,33.0522284 C164.018242,33.3238175 164.579649,33.45961 165.168675,33.45961 C165.500002,33.45961 165.886544,33.3962402 166.328313,33.2694986 C166.770083,33.142757 167.193438,32.8983305 167.598394,32.5362117 C168.003349,32.2103048 168.334671,31.7486102 168.592369,31.1511142 C168.850068,30.5536182 168.978916,29.7660216 168.978916,28.7883008 L168.978916,0 L174.611446,0 Z M193,0 L193,29.5487465 C193,32.1922138 192.153288,34.4011053 190.459839,36.1754875 C189.613115,37.0445726 188.609946,37.732588 187.450301,38.2395543 C186.290657,38.7465206 184.937759,39 183.391566,39 C181.587675,39 180.087523,38.6107281 178.891064,37.8321727 C177.694606,37.0536173 176.746657,36.2841264 176.047189,35.5236769 L180.464859,32.0473538 C180.869815,32.4456844 181.339187,32.7806393 181.872992,33.0522284 C182.406797,33.3238175 182.968203,33.45961 183.557229,33.45961 C183.888556,33.45961 184.275098,33.3962402 184.716867,33.2694986 C185.158637,33.142757 185.581993,32.8983305 185.986948,32.5362117 C186.391903,32.2103048 186.723225,31.7486102 186.980924,31.1511142 C187.238622,30.5536182 187.36747,29.7660216 187.36747,28.7883008 L187.36747,0 L193,0 Z" id="BJJ" fill="#FFFFFF"></path>
        <path d="M42.1315268,11.2646015 L36.6708526,11.2646015 L36.6708526,10.0367066 C36.6708526,8.79100979 36.3764074,7.71438803 35.7875083,6.80680896 C35.1986091,5.8992299 34.2082026,5.44544717 32.8162591,5.44544717 C32.066751,5.44544717 31.4600155,5.58781038 30.9960344,5.87254107 C30.5320532,6.15727175 30.1573048,6.51317977 29.8717779,6.94027581 C29.5862511,7.40296317 29.3899543,7.9279275 29.2828817,8.51518455 C29.1758091,9.10244159 29.1222736,9.71638293 29.1222736,10.357027 C29.1222736,11.104445 29.1490414,11.7272841 29.2025777,12.2255628 C29.2561139,12.7238415 29.3899527,13.1687265 29.6040978,13.5602312 C29.818243,13.9517359 30.1305333,14.2898485 30.5409782,14.5745792 C30.9514231,14.8593099 31.5135457,15.1440363 32.2273629,15.428767 L36.4031725,17.0837558 C37.6166617,17.5464432 38.5981456,18.0892029 39.3476537,18.7120513 C40.0971617,19.3348997 40.6860521,20.0556134 41.1143424,20.8742142 C41.5069418,21.7284062 41.7746192,22.6982556 41.9173827,23.7837913 C42.0601461,24.8693271 42.1315268,26.1061074 42.1315268,27.4941695 C42.1315268,29.0957797 41.9709203,30.5816956 41.6497026,31.9519621 C41.3284848,33.3222285 40.8109751,34.4878273 40.097158,35.4487933 C39.3476499,36.4453508 38.366166,37.2283484 37.1526768,37.7978098 C35.9391876,38.3672711 34.4580391,38.6519976 32.709187,38.6519976 C31.3886253,38.6519976 30.1573091,38.4206574 29.0152016,37.95797 C27.8730941,37.4952826 26.8916102,36.8546482 26.0707204,36.0360475 C25.2498307,35.2174467 24.5984823,34.2653928 24.1166557,33.179857 C23.6348291,32.0943213 23.3939194,30.9109271 23.3939194,29.629639 L23.3939194,27.600943 L28.8545935,27.600943 L28.8545935,29.3093186 C28.8545935,30.305876 29.1490387,31.2045438 29.7379379,32.0053488 C30.326837,32.8061539 31.3172435,33.2065504 32.709187,33.2065504 C33.6371494,33.2065504 34.3598784,33.0730849 34.8773959,32.8061499 C35.3949134,32.5392148 35.7964295,32.1566137 36.0819564,31.658335 C36.3674833,31.1600563 36.5370123,30.5639104 36.5905486,29.8698793 C36.6440849,29.1758483 36.6708526,28.4017483 36.6708526,27.5475563 C36.6708526,26.5509989 36.6351623,25.7324104 36.5637806,25.0917664 C36.4923988,24.4511223 36.3496376,23.9350557 36.1354924,23.543551 C35.8856564,23.1520463 35.5555209,22.8317291 35.145076,22.5825897 C34.7346311,22.3334504 34.1903537,22.0665194 33.5122274,21.7817887 L29.6040978,20.1801866 C27.2485011,19.2192205 25.6692043,17.9468493 24.8661599,16.3630349 C24.0631156,14.7792204 23.6615995,12.7950332 23.6615995,10.4104137 C23.6615995,8.98676027 23.8578963,7.63430979 24.2504957,6.3530217 C24.6430952,5.07173361 25.2319855,3.96841874 26.0171844,3.04304401 C26.7666924,2.11766927 27.7214086,1.37916013 28.8813615,0.827494423 C30.0413145,0.275828716 31.4243145,0 33.0304032,0 C34.3866558,0 35.6268946,0.249135614 36.7511566,0.747414318 C37.8754187,1.24569302 38.84798,1.90412286 39.6688698,2.72272359 C41.3106493,4.43110771 42.1315268,6.38860182 42.1315268,8.59526465 L42.1315268,11.2646015 Z M46.3939194,9.28929223 C46.3939194,7.75886479 46.6615968,6.40641431 47.1969597,5.23190022 C47.7323226,4.05738614 48.446129,3.07863908 49.3384005,2.29562969 C50.1949812,1.54821164 51.1675425,0.978758802 52.2561137,0.587254107 C53.3446849,0.195749411 54.4421623,0 55.548579,0 C56.6549956,0 57.7524731,0.195749411 58.8410443,0.587254107 C59.9296155,0.978758802 60.920022,1.54821164 61.8122935,2.29562969 C62.6688741,3.07863908 63.3648354,4.05738614 63.9001983,5.23190022 C64.4355612,6.40641431 64.7032386,7.75886479 64.7032386,9.28929223 L64.7032386,11.2112148 L59.2425644,11.2112148 L59.2425644,9.28929223 C59.2425644,7.9724128 58.8767386,7.00256345 58.145076,6.37971507 C57.4134134,5.75686669 56.547923,5.44544717 55.548579,5.44544717 C54.5492349,5.44544717 53.6837446,5.75686669 52.952082,6.37971507 C52.2204193,7.00256345 51.8545935,7.9724128 51.8545935,9.28929223 L51.8545935,29.3627053 C51.8545935,30.6795848 52.2204193,31.6494341 52.952082,32.2722825 C53.6837446,32.8951309 54.5492349,33.2065504 55.548579,33.2065504 C56.547923,33.2065504 57.4134134,32.8951309 58.145076,32.2722825 C58.8767386,31.6494341 59.2425644,30.6795848 59.2425644,29.3627053 L59.2425644,22.2088826 L54.9061467,22.2088826 L54.9061467,17.4040763 L64.7032386,17.4040763 L64.7032386,29.3627053 C64.7032386,30.9643155 64.4355612,32.3345613 63.9001983,33.4734841 C63.3648354,34.6124068 62.6688741,35.5555631 61.8122935,36.3029811 C60.920022,37.0859905 59.9296155,37.6732388 58.8410443,38.0647435 C57.7524731,38.4562482 56.6549956,38.6519976 55.548579,38.6519976 C54.4421623,38.6519976 53.3446849,38.4562482 52.2561137,38.0647435 C51.1675425,37.6732388 50.1949812,37.0859905 49.3384005,36.3029811 C48.446129,35.5555631 47.7323226,34.6124068 47.1969597,33.4734841 C46.6615968,32.3345613 46.3939194,30.9643155 46.3939194,29.3627053 L46.3939194,9.28929223 Z M0.393919365,38.6519976 L8.76202601,0 L13.2355421,0 L21.6036488,38.6519976 L16.2354294,38.6519976 L14.6565414,30.346161 L7.34102677,30.346161 L5.76213872,38.6519976 L0.393919365,38.6519976 Z M13.6266905,25.1913137 L10.9952105,11.1853933 L10.8899513,11.1853933 L8.25847118,25.1913137 L13.6266905,25.1913137 Z" id="AS" fill="#FFFFFF"></path>
    </g>
</svg>