<?xml version="1.0" encoding="UTF-8"?>
<svg width="41px" height="39px" viewBox="0 0 41 39" version="1.1" xmlns="http://www.w3.org/2000/svg" xmlns:xlink="http://www.w3.org/1999/xlink">
    <!-- Generator: Sketch 52.5 (67469) - http://www.bohemiancoding.com/sketch -->
    <title>Twitter_Icon</title>
    <desc>Created with Sketch.</desc>
    <g id="Twitter_Icon" stroke="none" stroke-width="1" fill="none" fill-rule="evenodd" stroke-linecap="round" stroke-linejoin="round">
        <path d="M35.2511981,12.1716247 C35.2649272,12.3755246 35.2721134,12.5805105 35.2727273,12.7865493 C35.2727273,30.9876604 19.1159743,40.4767588 4.95472858,31.7956027 L-1.63937973,27.7532687 L6.08769659,28.092414 C7.99625166,28.1761815 9.89048843,27.8172559 11.6547362,27.0497907 C8.90106172,24.9902897 7.1105499,22.3491595 6.20514822,19.2788893 C5.20966822,15.9031582 5.35431633,12.3716986 6.18143643,9.01626774 C6.43201222,7.99974099 6.68779516,7.23049576 6.87210365,6.77290581 L8.32564422,3.1641434 L10.4145364,6.44628838 C12.4620975,9.66349224 15.5940583,11.7286982 19.0134831,12.2254075 C19.1972599,8.85682683 21.1724423,5.85589778 24.1538287,4.60025651 C26.9241223,3.43351907 30.0087135,4.00641957 32.2390415,5.9694811 C33.1297045,5.56728038 33.9794065,5.05373581 34.7715675,4.43716646 L39.1483115,1.03057822 L37.9529999,6.44647722 C37.4855698,8.56438016 36.5584402,10.5272608 35.2511981,12.1716247 Z" id="Path" stroke="#FFFFFF" stroke-width="4"></path>
    </g>
</svg>