<svg xmlns="http://www.w3.org/2000/svg" width="37" height="39" viewBox="0 0 37 39">
    <g fill="none" fill-rule="evenodd" stroke="#FFF" stroke-linecap="round" stroke-linejoin="round" stroke-width="4">
        <path d="M34.31 7.479c-.363-2.187-1.473-3.914-2.91-4.528C28.82 2 18.5 2 18.5 2S8.18 2 5.6 3.041c-1.437.614-2.547 2.341-2.91 4.528A98.353 98.353 0 0 0 2 19.545a98.36 98.36 0 0 0 .69 12.067c.4 2.117 1.504 3.766 2.91 4.347C8.18 37 18.5 37 18.5 37s10.32 0 12.9-1.041c1.437-.614 2.547-2.341 2.91-4.528.468-3.922.699-7.9.69-11.886a98.36 98.36 0 0 0-.69-12.066z"/>
        <path d="M16 28l9-8-9-8z"/>
    </g>
</svg>
